<svg width="210" height="210" viewBox="0 0 210 210" fill="none" xmlns="http://www.w3.org/2000/svg">
<g clip-path="url(#clip0_76_2)">
<path d="M89.5551 25.9296C100.891 30.087 110.835 37.3549 118.254 46.9052C125.673 56.4556 130.269 67.9044 131.518 79.9472C132.767 91.9901 130.619 104.143 125.319 115.021C120.018 125.899 111.779 135.065 101.539 141.474C91.2993 147.883 79.4707 151.278 67.4012 151.273C55.3316 151.267 43.5063 147.86 33.2725 141.441C23.0388 135.022 14.8081 125.849 9.51817 114.966C4.22826 104.082 2.09185 91.9277 3.35233 79.8861L26.5145 82.326C25.7096 90.0151 27.0738 97.7764 30.4516 104.726C33.8294 111.675 39.0851 117.533 45.6197 121.632C52.1544 125.73 59.7053 127.906 67.4122 127.909C75.1192 127.913 82.6721 125.745 89.2107 121.652C95.7492 117.56 101.01 111.707 104.395 104.761C107.779 97.815 109.151 90.055 108.353 82.3651C107.556 74.6752 104.621 67.3647 99.8837 61.2664C95.1464 55.1681 88.7968 50.5273 81.5584 47.8726L89.5551 25.9296Z" fill="url(#paint0_linear_76_2)"/>
<path d="M206.928 142.755C202.146 153.01 194.762 161.825 185.516 168.317C176.27 174.809 165.486 178.751 154.244 179.749C143.002 180.746 131.696 178.764 121.458 174C111.22 169.236 102.409 161.859 95.9061 152.605C89.4036 143.352 85.4379 132.547 84.4062 121.273C83.3744 109.999 85.3127 98.6502 90.027 88.3636C94.7414 78.077 102.066 69.2131 111.269 62.6591C120.471 56.105 131.228 52.0907 142.463 51.018L144.304 70.4208C136.457 71.17 128.944 73.9738 122.516 78.5516C116.088 83.1293 110.972 89.3204 107.679 96.5052C104.387 103.69 103.033 111.616 103.754 119.491C104.474 127.366 107.244 134.912 111.786 141.375C116.328 147.839 122.482 152.992 129.633 156.319C136.784 159.646 144.681 161.031 152.533 160.334C160.385 159.637 167.917 156.884 174.375 152.349C180.833 147.815 185.99 141.658 189.33 134.496L206.928 142.755Z" fill="url(#paint1_linear_76_2)"/>
</g>
<defs>
<linearGradient id="paint0_linear_76_2" x1="90.5" y1="122.545" x2="21.7947" y2="22.2028" gradientUnits="userSpaceOnUse">
<stop stop-color="#005EB8"/>
<stop offset="0.349089" stop-color="#005EB8" stop-opacity="0.619425"/>
<stop offset="1" stop-color="#005EB8" stop-opacity="0"/>
</linearGradient>
<linearGradient id="paint1_linear_76_2" x1="205.045" y1="66.6869" x2="112.48" y2="158.959" gradientUnits="userSpaceOnUse">
<stop offset="0.163793" stop-color="#0077C8" stop-opacity="0"/>
<stop offset="0.672414" stop-color="#0077C8" stop-opacity="0.551386"/>
<stop offset="1" stop-color="#0077C8"/>
</linearGradient>
<clipPath id="clip0_76_2">
<rect width="210" height="210" fill="white"/>
</clipPath>
</defs>
</svg>
